<?xml version="1.0" encoding="UTF-8"?>
<svg version="1.1" xmlns="http://www.w3.org/2000/svg" width="500" height="500">
<path d="M0 0 C165 0 330 0 500 0 C500 165 500 330 500 500 C335 500 170 500 0 500 C0 335 0 170 0 0 Z " fill="#FEFEFE" transform="translate(0,0)"/>
<path d="M0 0 C0.67804688 0.53496094 1.35609375 1.06992188 2.0546875 1.62109375 C2.75335938 2.14574219 3.45203125 2.67039063 4.171875 3.2109375 C12.47247 9.867075 18.36049959 20.08443387 20.0546875 30.62109375 C20.22314548 33.11758581 20.32040315 35.61936197 20.3671875 38.12109375 C20.42326172 40.0546875 20.42326172 40.0546875 20.48046875 42.02734375 C19.93772736 53.19971951 14.46764721 63.70670139 9.6171875 73.55859375 C9.31299896 74.18294312 9.00881042 74.80729248 8.69540405 75.45056152 C-1.40764769 96.14994536 -13.45455983 115.95085567 -26.9453125 134.62109375 C-38.52558619 120.81384435 -47.25219317 104.32741207 -55.9453125 88.62109375 C-56.36296875 87.87762695 -56.780625 87.13416016 -57.2109375 86.36816406 C-67.71731427 67.63236068 -78.66559072 46.27741444 -72.8828125 24.24609375 C-67.81266966 10.27344658 -58.05394036 1.01031161 -44.9453125 -5.37890625 C-30.09829939 -11.39854051 -12.93513561 -9.49998055 0 0 Z " fill="#020202" transform="translate(261.9453125,148.37890625)"/>
<path d="M0 0 C5.51303789 4.28791836 9.23040808 10.66109385 10.453125 17.5546875 C10.79552797 25.40549849 8.01765544 31.69010094 3.25 37.8125 C-2.15876718 43.56935615 -7.11627368 45.23889368 -15 45.5 C-23.37802637 45.21387743 -28.0719601 43.30019558 -33.8125 37.25 C-38.91839135 30.9200936 -40.6842183 24.94522441 -40.40234375 16.8046875 C-39.37581918 9.64891428 -36.11132394 4.53653849 -30.5625 0 C-20.29577875 -7.17657324 -10.3798005 -6.67272889 0 0 Z " fill="#F9F6F7" transform="translate(250,165)"/>
<path d="M0 0 C0 0.33 0 0.66 0 1 C-0.62648437 1.04898438 -1.25296875 1.09796875 -1.8984375 1.1484375 C-3.12433594 1.26058594 -3.12433594 1.26058594 -4.375 1.375 C-5.18710938 1.44460937 -5.99921875 1.51421875 -6.8359375 1.5859375 C-9.20334191 1.82892588 -9.20334191 1.82892588 -11 4 C-11.6425235 6.06874034 -11.6425235 6.06874034 -12 8 C-10.94941406 7.85691406 -9.89882812 7.71382812 -8.81640625 7.56640625 C-5 8 -5 8 -2.33984375 10.96484375 C-1.51392087 12.27352908 -0.71411865 13.59896745 0.0625 14.9375 C0.91526939 16.31516309 1.76813374 17.69276742 2.62109375 19.0703125 C3.02569824 19.74352539 3.43030273 20.41673828 3.84716797 21.11035156 C5.35034163 23.57425756 6.9806239 25.94117749 8.625 28.3125 C11 31.75690608 11 31.75690608 11 34 C7.80787179 34.65145474 5.16561065 34.8542124 2 34 C-0.28652154 31.55933094 -1.89774197 29.06767325 -3.58984375 26.1875 C-4.05519531 25.465625 -4.52054688 24.74375 -5 24 C-5.66 24 -6.32 24 -7 24 C-8.03610051 25.8131759 -9.02890868 27.65119153 -10 29.5 C-11.859375 32.5625 -11.859375 32.5625 -14 35 C-16.8555597 35.6922569 -18.87879201 35.55994663 -21.765625 35.09375 C-24.0978716 34.74789917 -24.0978716 34.74789917 -25.796875 36.46875 C-26.19390625 36.9740625 -26.5909375 37.479375 -27 38 C-30.26250337 30.79530507 -31.52464031 24.05267271 -29.19140625 16.3203125 C-25.84819649 8.708437 -20.44237454 4.17392796 -13.0625 0.5625 C-8.69703286 -0.2393205 -4.42442781 -0.15739071 0 0 Z " fill="#F3F2F3" transform="translate(240,160)"/>
<path d="M0 0 C0.66 0 1.32 0 2 0 C3.671459 2.28172191 5.2244772 4.56073887 6.75 6.9375 C7.64830361 8.31519148 8.54674079 9.69279587 9.4453125 11.0703125 C9.88133789 11.74352539 10.31736328 12.41673828 10.76660156 13.11035156 C12.80356308 16.23111208 14.92366003 19.29536331 17.0390625 22.36328125 C18 24 18 24 18 26 C14.80787179 26.65145474 12.16561065 26.8542124 9 26 C6.71347846 23.55933094 5.10225803 21.06767325 3.41015625 18.1875 C2.94480469 17.465625 2.47945312 16.74375 2 16 C1.34 16 0.68 16 0 16 C-1.03610051 17.8131759 -2.02890868 19.65119153 -3 21.5 C-6.19892724 26.78194963 -6.19892724 26.78194963 -9.68359375 27.73046875 C-12.20307853 27.69115764 -14.53071518 27.49186961 -17 27 C-15.62245262 23.09811453 -13.8106223 20.16329458 -11.3125 16.875 C-7.73010071 12.07889165 -4.5295709 7.14800743 -1.4453125 2.01953125 C-0.96835938 1.35308594 -0.49140625 0.68664062 0 0 Z " fill="#161716" transform="translate(233,168)"/>
<path d="M0 0 C0.66 0 1.32 0 2 0 C3.671459 2.28172191 5.2244772 4.56073887 6.75 6.9375 C7.64830361 8.31519148 8.54674079 9.69279587 9.4453125 11.0703125 C9.88133789 11.74352539 10.31736328 12.41673828 10.76660156 13.11035156 C12.80356308 16.23111208 14.92366003 19.29536331 17.0390625 22.36328125 C18 24 18 24 18 26 C14.80878117 26.65126915 12.16664058 26.84443749 9 26 C6.08980984 22.99171354 4.12216901 19.58593655 2 16 C1.34 15.34 0.68 14.68 0 14 C-0.1953125 10.7421875 -0.1953125 10.7421875 -0.125 6.875 C-0.10695312 5.59367188 -0.08890625 4.31234375 -0.0703125 2.9921875 C-0.04710937 2.00476563 -0.02390625 1.01734375 0 0 Z " fill="#D70F44" transform="translate(233,168)"/>
<path d="M0 0 C0.33 0 0.66 0 1 0 C1.57650114 8.40410547 1.59204823 14.38940013 -4 21 C-4.99 20.34 -5.98 19.68 -7 19 C-7.375 15.5 -7.375 15.5 -7 12 C-6.01 11.34 -5.02 10.68 -4 10 C-3.2833793 7.68152126 -2.61757973 5.34680297 -2 3 C-1.34 2.01 -0.68 1.02 0 0 Z " fill="#130808" transform="translate(233,169)"/>
<path d="M0 0 C7.66666667 0 15.33333333 0 23 0 C22.67 1.65 22.34 3.3 22 5 C19.69 5 17.38 5 15 5 C15 4.34 15 3.68 15 3 C14.01 3.66 13.02 4.32 12 5 C9.3125 5.125 9.3125 5.125 7 5 C6.67 4.01 6.34 3.02 6 2 C5.34 2 4.68 2 4 2 C4 2.99 4 3.98 4 5 C3.34 5 2.68 5 2 5 C2 3.68 2 2.36 2 1 C1.34 0.67 0.68 0.34 0 0 Z " fill="#565656" transform="translate(244,290)"/>
<path d="M0 0 C1.670625 0.061875 1.670625 0.061875 3.375 0.125 C3.375 2.765 3.375 5.405 3.375 8.125 C2.055 7.465 0.735 6.805 -0.625 6.125 C-1.285 6.785 -1.945 7.445 -2.625 8.125 C-4.75 7.75 -4.75 7.75 -6.625 7.125 C-5.84042384 2.15601765 -5.49387562 0.18944399 0 0 Z " fill="#F6FDFC" transform="translate(234.625,160.875)"/>
<path d="M0 0 C2.97 0 5.94 0 9 0 C9.66 1.65 10.32 3.3 11 5 C5.96488101 6.0070238 2.76052962 5.97387813 -2 4 C-1.34 2.68 -0.68 1.36 0 0 Z " fill="#9E9E9E" transform="translate(223,290)"/>
<path d="M0 0 C1.9375 0.3125 1.9375 0.3125 4 1 C4.33 1.99 4.66 2.98 5 4 C5 2.68 5 1.36 5 0 C6.65 0 8.3 0 10 0 C10.33 1.65 10.66 3.3 11 5 C7.37 5 3.74 5 0 5 C0 3.35 0 1.7 0 0 Z " fill="#545454" transform="translate(206,290)"/>
<path d="M0 0 C0.86625 0.2784375 0.86625 0.2784375 1.75 0.5625 C4.20692525 1.04023546 5.64397534 0.75729364 8 0 C8 1.65 8 3.3 8 5 C5.36 5 2.72 5 0 5 C0 3.35 0 1.7 0 0 Z " fill="#505050" transform="translate(196,290)"/>
<path d="M0 0 C2.9555377 2.75170751 5.11563315 5.41970299 7 9 C7 9.66 7 10.32 7 11 C4.03 11 1.06 11 -2 11 C-2 10.34 -2 9.68 -2 9 C0.31 9.33 2.62 9.66 5 10 C4.360625 9.46375 3.72125 8.9275 3.0625 8.375 C0.61470596 5.55632807 0.33285388 3.66139268 0 0 Z " fill="#CA214F" transform="translate(244,183)"/>
<path d="M0 0 C1.98 0.99 1.98 0.99 4 2 C4 3.98 4 5.96 4 8 C2.68 7.67 1.36 7.34 0 7 C0 4.69 0 2.38 0 0 Z " fill="#E2023C" transform="translate(235,174)"/>
<path d="M0 0 C1.65 0 3.3 0 5 0 C5.33 1.65 5.66 3.3 6 5 C4 5 2 5 0 5 C0 3.35 0 1.7 0 0 Z " fill="#4A4A4A" transform="translate(274,290)"/>
<path d="M0 0 C0.66 0 1.32 0 2 0 C3.38938077 1.96147874 4.7260411 3.96166576 6 6 C5.67 6.66 5.34 7.32 5 8 C4.01 7.34 3.02 6.68 2 6 C1.67 6.99 1.34 7.98 1 9 C0.67 6.03 0.34 3.06 0 0 Z " fill="#BA2E56" transform="translate(233,168)"/>
<path d="M0 0 C1.98 0.495 1.98 0.495 4 1 C4.33 2.32 4.66 3.64 5 5 C3.02 5 1.04 5 -1 5 C-0.67 3.35 -0.34 1.7 0 0 Z " fill="#454545" transform="translate(190,290)"/>
<path d="M0 0 C0.99 0.33 1.98 0.66 3 1 C3.6875 3.0625 3.6875 3.0625 4 5 C2.02 5 0.04 5 -2 5 C-1.34 3.35 -0.68 1.7 0 0 Z " fill="#444444" transform="translate(230,290)"/>
<path d="M0 0 C1.65 0 3.3 0 5 0 C5 1.65 5 3.3 5 5 C3.35 5 1.7 5 0 5 C0 3.35 0 1.7 0 0 Z " fill="#494949" transform="translate(268,290)"/>
<path d="M0 0 C0.33 1.32 0.66 2.64 1 4 C-1.4375 6.75 -1.4375 6.75 -4 9 C-4.66 8.67 -5.32 8.34 -6 8 C-4.02 5.36 -2.04 2.72 0 0 Z " fill="#1B231D" transform="translate(229,175)"/>
<path d="M0 0 C1.98 0 3.96 0 6 0 C6.33 0.66 6.66 1.32 7 2 C6.01 2 5.02 2 4 2 C4 2.99 4 3.98 4 5 C3.34 5 2.68 5 2 5 C2 3.68 2 2.36 2 1 C1.34 0.67 0.68 0.34 0 0 Z " fill="#5B5B5B" transform="translate(244,290)"/>
</svg>
