<svg xmlns="http://www.w3.org/2000/svg" width="396" height="512"><path d="M0 0h396v512H0z" style="fill:#0a0a0a;fill-opacity:1;stroke:none"/><path d="M0 0h396v512H0Zm189.848 46.547-.809.219c-2.535.84-4.805 2.414-7.082 3.773-1.125.664-2.266 1.3-3.406 1.941a334 334 0 0 0-5.403 3.098 588 588 0 0 1-6.101 3.52 1878 1878 0 0 0-8.598 4.933q-1.886 1.09-3.777 2.18l-1.512.871-15.898 9.164-1.516.875q-1.9 1.096-3.8 2.188c-2.462 1.414-4.915 2.84-7.368 4.27a409 409 0 0 1-6.094 3.487 421 421 0 0 0-5.464 3.145c-2.47 1.445-4.95 2.875-7.43 4.3q-1.9 1.095-3.793 2.188l-1.516.871-.758.438-3.027 1.746-1.512.871c-1.27.73-2.535 1.46-3.804 2.191a1368 1368 0 0 0-7.32 4.239c-2.692 1.57-5.387 3.125-8.087 4.68q-1.898 1.09-3.793 2.187l-1.515.871-.758.437-2.27 1.31-.757.433-1.516.875c-1.258.722-2.512 1.449-3.77 2.172q-4.124 2.384-8.261 4.738a627 627 0 0 0-6.293 3.64 602 602 0 0 1-5.793 3.329 703 703 0 0 0-6.43 3.714 528 528 0 0 1-4.554 2.625l-1.778 1.016q-.556.317-1.113.629c-2.29 1.297-4.402 2.68-6.442 4.348l-.472.367c-1.281 1.02-2.258 2.3-3.254 3.59l-.43.55c-4.394 5.93-4.804 12.5-4.781 19.61 0 .972 0 1.949-.004 2.922v5.105q.005 3.797.004 7.594-.006 6.782 0 13.562.005 7.934.004 15.86c-.004 9.996 0 19.988.004 29.984q.011 14.169.004 28.344v5.96q-.001 13.123.004 26.247v11.074q-.001 7.137.004 14.274.004 3.772.003 7.546c-.004 1.68 0 3.36 0 5.04q.006 1.436 0 2.87-.001 1.31.004 2.618c0 .457 0 .918-.004 1.375.008 1.777.18 3.453.532 5.195l.132.684c1.27 6.11 5.196 11.789 10.286 15.347 1.484.957 3.02 1.82 4.554 2.692 1.114.636 2.22 1.285 3.325 1.93a1434 1434 0 0 0 8.19 4.738l3.794 2.187 1.512.871 3.03 1.746.755.438 1.515.871c1.266.73 2.536 1.46 3.801 2.191q4.015 2.31 8.012 4.641c2.46 1.438 4.93 2.86 7.398 4.277q1.136.655 2.266 1.305 4.119 2.384 8.262 4.738 3.152 1.802 6.293 3.641a653 653 0 0 0 5.789 3.328q3.23 1.84 6.437 3.719 2.214 1.293 4.446 2.562a480 480 0 0 1 5.168 2.98c2.714 1.587 5.437 3.157 8.16 4.723l3.793 2.188 1.515.871 3.028 1.746.757.438 1.512.87c1.27.731 2.535 1.462 3.805 2.192a1357 1357 0 0 1 7.289 4.223 623 623 0 0 0 6.058 3.492q6.434 3.667 12.833 7.398c2.46 1.438 4.93 2.856 7.398 4.278q1.894 1.09 3.789 2.187l6.813 3.922 3.855 2.227c4.305 2.5 4.305 2.5 8.668 4.902l.644.352c.63.316 1.258.57 1.918.812l.493.184c6.05 2.144 12.804 1.847 18.609-.88 2.96-1.433 5.79-3.105 8.625-4.769 1.273-.75 2.55-1.484 3.836-2.215a449 449 0 0 0 5.14-2.964 594 594 0 0 1 6.13-3.536q6.474-3.688 12.914-7.449 2.526-1.468 5.07-2.914a532 532 0 0 0 4.566-2.64c2.715-1.586 5.438-3.157 8.16-4.723q1.9-1.093 3.793-2.188l1.516-.87.758-.438 14.383-8.29.757-.437 1.512-.87c1.274-.735 2.55-1.474 3.828-2.208q3.48-2.016 6.977-4.008a628 628 0 0 0 5.844-3.379 1274 1274 0 0 1 7.453-4.308q1.899-1.093 3.793-2.188l1.515-.87.758-.438 9.082-5.239 1.516-.87c1.265-.731 2.535-1.462 3.8-2.192q3.67-2.105 7.32-4.238c2.692-1.57 5.392-3.125 8.09-4.68q1.132-.652 2.262-1.305 3.715-2.144 7.434-4.265a756 756 0 0 0 7.152-4.125 625 625 0 0 1 4.442-2.57 604 604 0 0 0 3.035-1.75c.41-.243.824-.477 1.238-.716 6.613-3.793 10.602-9.707 12.578-16.98.395-1.898.395-3.758.391-5.687l.004-.985v-2.71c0-.981.004-1.962.004-2.946.004-1.945.004-3.895.004-5.84.004-2.332.004-4.668.007-7l.012-16.914.004-5.606q.011-18.35.016-36.703v-.867c.004-9.265.011-18.535.02-27.8q.018-16.312.019-32.63v-.8q0-6.393.012-12.785c.003-4.286.007-8.57.003-12.852 0-2.547 0-5.09.008-7.633q.006-2.555 0-5.105-.007-1.453.004-2.907c.024-5.14-.258-9.757-2.71-14.382l-.333-.672c-.805-1.563-1.793-2.88-2.93-4.219l-.34-.434c-2.284-2.863-5.702-4.824-8.843-6.605l-1.219-.695-1.2-.684c-1-.57-1.991-1.144-2.983-1.719l-.528-.304a969 969 0 0 1-4.351-2.532 1538 1538 0 0 0-8.188-4.738q-1.899-1.09-3.793-2.187l-1.515-.871-9.082-5.235-.758-.437-1.516-.871q-1.9-1.095-3.8-2.192a1255 1255 0 0 1-8.012-4.644c-2.461-1.434-4.93-2.856-7.399-4.274q-1.893-1.094-3.793-2.187l-1.512-.871-21.199-12.22-.758-.437-1.511-.87-3.801-2.192a1221 1221 0 0 1-7.293-4.223 557 557 0 0 0-6.086-3.508 609 609 0 0 1-6.77-3.906q-2.555-1.487-5.109-2.957a859 859 0 0 1-5.797-3.363 717 717 0 0 0-6.5-3.742 704 704 0 0 1-6.437-3.715 385 385 0 0 0-4.446-2.563 521 521 0 0 1-5.168-2.984 1298 1298 0 0 0-8.152-4.715q-1.178-.678-2.355-1.363-2.233-1.29-4.473-2.574l-.629-.36c-2.07-1.183-4.11-2.312-6.36-3.133l-.44-.18c-5.157-2.128-10.844-1.574-16.098-.05" style="stroke:none;fill-rule:nonzero;fill:#fefefe;fill-opacity:1"/><path d="M262.758 272.523h9.086v76.801h-9.086l-.235-10.008-2.093 3.258c-1.407 1.914-3.504 3.528-5.594 4.656h-.465v.465c-.152.055-.305.106-.46.164-1.157.41-2.282.848-3.4 1.364-2.984 1.246-6.23 1.398-9.429 1.28a39 39 0 0 0-1.168-.023c-4.715-.171-9.937-2.378-13.726-5.113l-.551-.394c-4.16-3.149-7.078-6.996-9.235-11.707l-.273-.575c-1.32-2.98-1.844-6.48-1.879-9.722l-.004-.54q-.007-.565-.008-1.132-.005-.562-.015-1.129c-.121-6.652 2.109-12.953 6.37-18.09l.509-.613c1.25-1.45 2.632-2.649 4.152-3.809l.559-.426c6.14-4.496 13.78-5.957 21.277-5.05 5.363.98 10.164 3.785 13.805 7.804l1.628 2.563Zm0 0" style="stroke:none;fill-rule:nonzero;fill:#747576;fill-opacity:1"/><path d="M212.773 162.832c4.434 4.004 7.711 9.277 8.094 15.367.258 5.703-1.004 10.278-3.254 15.465a73 73 0 0 0-.816 2.059 169 169 0 0 1-1.902 4.707 754 754 0 0 0-4.438 10.945l-2.8 7.008-.716 1.781-.187.469-.52 1.293c-.308.777-.609 1.562-.91 2.347a144 144 0 0 1-1.762 4.336c-2.082 4.989-4.046 10.028-6.027 15.055-.465-.601-.816-1.125-1.082-1.84l-.203-.523-.2-.543a92 92 0 0 0-1.327-3.36c-.938-2.246-1.832-4.507-2.735-6.765l-.605-1.5-1.578-3.953-1.582-3.95-2.418-6.046c-1.38-3.442-2.754-6.883-4.133-10.32q-.666-1.678-1.34-3.348l-.902-2.262a376 376 0 0 0-2.395-5.86q-.603-1.44-1.195-2.894-.149-.356-.3-.723c-2.333-5.738-2.446-12.246-.134-18.023 1-2.184 2.137-4.242 3.727-6.05l.433-.548c2.442-2.918 6.243-5.797 9.965-6.758a18 18 0 0 0 1.598-.523c7.148-2.383 16.098.195 21.644 4.957m0 0" style="stroke:none;fill-rule:nonzero;fill:#f8cd38;fill-opacity:1"/><path d="m250.879 301.148.48.204c2.188.949 4.067 2.101 5.809 3.753l.66.622c1.633 1.62 2.66 3.386 3.582 5.48q.229.522.48 1.031c1.313 2.89 1.395 6.024 1.407 9.145l.004.867c-.012 1.637-.149 3.145-.543 4.73l-.113.497c-1.196 5.039-4.18 9.296-8.579 12.066a24 24 0 0 1-3.187 1.637l-.758.34c-4.258 1.648-9.96 1.464-14.16-.31-1.996-.882-3.867-1.937-5.582-3.288l-.535-.418c-3.348-2.79-5.41-6.813-6.453-10.988l-.125-.434c-.434-1.668-.43-3.332-.43-5.05v-.47c.008-2.414.187-4.57 1.02-6.847l.257-.735c2.024-5.308 6.032-9.27 11.157-11.628 4.73-2.07 10.847-2.286 15.609-.204" style="stroke:none;fill-rule:nonzero;fill:#0a0a0a;fill-opacity:1"/><path d="M78.5 273.223h44.957v8.144H87.82V307.2h29.348v7.68H87.82v34.445H78.5Zm0 0" style="stroke:none;fill-rule:nonzero;fill:#575656;fill-opacity:1"/><path d="M196.836 295.914c.312.266.625.54.93.813l.511.402c3.512 2.867 5.45 7.144 6.477 11.469l.191.78c.75 3.696.598 7.458.578 11.212q-.004 1.517-.003 3.035-.005 2.87-.016 5.734-.011 3.27-.016 6.54-.012 6.71-.035 13.425h-8.851l-.008-3.164q-.018-5.187-.047-10.379-.018-3.142-.024-6.285-.01-2.747-.027-5.488c-.004-.965-.008-1.934-.008-2.899a642 642 0 0 0-.015-2.742c0-.332-.004-.664 0-.996.004-4.637-.72-9.824-3.957-13.383-1.313-1.25-2.61-2.191-4.301-2.84l-.664-.273c-3.863-1.363-8.871-1.191-12.613.508-4.633 2.402-8.133 6.449-10.25 11.168l-.239.531c-.75 1.824-.828 3.508-.82 5.461-.008 1.246-.016 2.492-.012 3.738 0 .95-.008 1.903-.012 2.856-.011 1.797-.015 3.597-.02 5.398a3236 3236 0 0 1-.019 6.149c-.02 4.214-.03 8.425-.043 12.64h-8.851v-56.32h8.851l.235 12.101 1.398-2.558c.942-1.516 1.961-2.953 3.262-4.192h.465v-.464q.738-.644 1.512-1.235l.453-.351c2.793-2.137 2.793-2.137 4.09-2.137v-.465c7.257-2.445 15.511-2.617 21.898 2.211" style="stroke:none;fill-rule:nonzero;fill:#86878a;fill-opacity:1"/><path d="M195.89 164.055c2.286-.082 4.344-.016 6.536.715l.496.152c4.187 1.418 7.535 4.433 9.512 8.363 1.914 4.016 2.242 8.32.906 12.59-1.57 4.406-4.563 7.754-8.778 9.824-2.312 1.086-4.328 1.742-6.882 1.711-.293 0-.293 0-.59-.004-1.375-.023-2.656-.144-3.98-.52l-.544-.12c-3.937-.98-7.07-3.715-9.257-7.04-2.403-4.011-3.317-8.808-2.297-13.421.746-2.45 2-4.743 3.71-6.649l.477-.535c1.254-1.32 2.613-2.27 4.184-3.187l.574-.364c1.84-1.043 3.848-1.433 5.934-1.515" style="stroke:none;fill-rule:nonzero;fill:#0b0b0a;fill-opacity:1"/><path d="m312.102 292.043.78-.004.817.004.824-.004.782.004h.715c.546.031.546.031.78.262.02.62.028 1.234.024 1.855l-.004.563q-.002.895-.004 1.785a1482 1482 0 0 1-.015 4.176l-.516-.02c-5.898-.184-10.984.688-15.558 4.676l-.684.539c-2.977 2.48-5.023 6.492-6.07 10.164l-.18.625c-.73 3.039-.633 6.129-.637 9.234a520 520 0 0 1-.015 2.477c-.012 1.558-.016 3.117-.024 4.676q-.007 2.661-.027 5.324-.029 5.473-.05 10.945h-8.853v-56.32h8.852l.234 13.266 1.164-2.793c2.458-4.47 5.852-7.657 10.485-9.774l.601-.277c1.223-.524 2.407-.824 3.72-1.028.546-.078.546-.078.984-.214.636-.137 1.222-.141 1.875-.141" style="stroke:none;fill-rule:nonzero;fill:#5d5c5c;fill-opacity:1"/><path d="M133.477 293.004h8.851v56.32h-8.851Zm0 0" style="stroke:none;fill-rule:nonzero;fill:#717273;fill-opacity:1"/><path d="M154.207 367.941c8.125 0 8.125 0 10.047 1.864 1.238 1.578 1.293 2.902 1.133 4.886-.262 1.094-.848 1.989-1.63 2.793-.757.422-.757.422-1.398.7.145.746.399 1.238.844 1.851l.371.52.387.535.383.535c.699.977.699.977 1.437 1.922.305.453.305.453.305 1.152-.746.168-1.352.207-2.094 0-.804-.867-1.312-1.96-1.863-3-.953-1.844-.953-1.844-2.59-2.984-1.191-.207-2.234-.125-3.469-.067v5.817h-1.863Zm0 0" style="stroke:none;fill-rule:nonzero;fill:#636363;fill-opacity:1"/><path d="m175.77 367.926.8.015c1.637 3.137 3.07 6.364 4.504 9.598l.774 1.742c.363.813.722 1.625 1.086 2.434l.332.75.304.687.266.602c.187.48.187.48.187.945h-2.097l-1.63-3.726-9.085-.23-.7 2.093c-.222.625-.46 1.242-.698 1.863h-2.094c.133-1.043.402-1.879.844-2.832l.19-.418q.31-.674.626-1.347c.293-.645.59-1.29.883-1.934l.234-.504c.984-2.156 1.934-4.328 2.887-6.5q.323-.744.652-1.488l.195-.453c.563-1.278.563-1.278 1.54-1.297m0 0" style="stroke:none;fill-rule:nonzero;fill:#747576;fill-opacity:1"/><path d="M221.992 367.941c1.633 0 1.633 0 2.285.625q.38.499.743 1.004.404.522.812 1.043.608.792 1.211 1.582.733.96 1.473 1.914l.578.75q.598.78 1.203 1.559l.308.402.84 1.09c.66.863 1.309 1.73 1.961 2.598l.235-12.567h2.097V384.7c-1.633 0-1.633 0-2.148-.445l-.43-.602-.476-.652-.442-.629q-.333-.447-.668-.887l-.34-.453c-.793-1.058-1.601-2.101-2.41-3.148-.304-.395-.61-.79-.91-1.184l-.3-.394-.817-1.063c-.817-1.047-1.649-2.078-2.473-3.11l-.234 12.567h-2.098Zm0 0" style="stroke:none;fill-rule:nonzero;fill:#686869;fill-opacity:1"/><path d="m251.387 369.031.656.54-.7 1.398c-.687-.102-1.167-.235-1.777-.582-1.55-.692-3.308-.758-4.949-.317-1.66.664-2.832 1.961-3.758 3.457-.593 1.79-.547 4.286.278 5.993 1.015 1.664 2.297 2.703 4.148 3.316 1.895.262 3.274.059 4.895-.93l.699-.234c.246-.418.246-.418.465-.93l.363-.539c.45-.75.45-.75.566-2.254h-4.656v-1.629h6.754c0 2.625-.555 4.586-2.312 6.555-1.696 1.66-3.41 2.066-5.739 2.156-2.504-.074-4.402-1.129-6.156-2.894-1.871-2.496-2.238-5.102-1.867-8.145.726-2.476 2.371-4.191 4.574-5.453 2.57-1.383 6.121-1.203 8.516.492" style="stroke:none;fill-rule:nonzero;fill:#565555;fill-opacity:1"/><path d="M201.96 367.941h2.095l.234 8.38c1.813-1.801 1.813-1.801 3.512-3.676a96 96 0 0 1 2.082-2.286c.637-.683.637-.683 1.219-1.414.484-.652.738-.976 1.55-1.14l.68.05.688.04.52.046q-.697.814-1.4 1.63l-.34.402a62 62 0 0 1-2.109 2.32l-.449.469q-.445.47-.894.933l-.418.438-.38.394c-.34.45-.468.77-.534 1.328.347.516.347.516.875 1.016q1.32 1.394 2.488 2.91a99 99 0 0 0 3.207 3.91c.418.543.418.543.418 1.008-.8.113-1.527.149-2.328 0-.457-.379-.707-.77-1.024-1.273-.445-.7-.957-1.309-1.496-1.942a64 64 0 0 1-1.793-2.187l-.55-.707-.493-.645c-.468-.57-.468-.57-1.398-.46-.91.636-1.531 1.433-1.785 2.515a23 23 0 0 0-.067 2.137l-.011.75a93 93 0 0 0-.004 1.812h-2.094Zm0 0" style="stroke:none;fill-rule:nonzero;fill:#828385;fill-opacity:1"/><path d="M133.477 272.523h8.851v7.914h-8.851Zm0 0" style="stroke:none;fill-rule:nonzero;fill:#707071;fill-opacity:1"/><path d="M199.629 369.57c0 .465 0 .465-.406.977l-.524.422c-.75-.11-1.426-.43-2.125-.715-1.68-.61-3.113-.746-4.789-.07-1.68.84-2.758 1.89-3.57 3.578-.531 1.633-.512 3.75.148 5.336 1.063 2.004 2.375 3.027 4.512 3.738 1.8.18 3.074-.098 4.66-.93q.58-.24 1.164-.465c.48.536.48.536.93 1.164-.23.696-.23.696-.832 1.063l-.754.36-.746.367c-1.785.78-3.91.835-5.777.261-2.618-1.035-4.2-2.722-5.415-5.242-.753-1.836-.851-4.203-.167-6.086 1.128-2.43 2.785-4.265 5.32-5.238 3.023-.996 5.746-.121 8.37 1.48" style="stroke:none;fill-rule:nonzero;fill:#848688;fill-opacity:1"/><path d="M140.465 367.941h11.18v2.094h-4.426V384.7h-2.098v-14.894h-4.656Zm0 0" style="stroke:none;fill-rule:nonzero;fill:#515150;fill-opacity:1"/><path d="m156.07 369.805 1.98-.043.614-.02c1.527-.02 2.828.223 4.031 1.238.625.774.64 1.29.657 2.27l.015.734c-.105.996-.39 1.536-1.148 2.2-1.285.921-2.39.98-3.934.906l-2.215-.07Zm0 0" style="stroke:none;fill-rule:nonzero;fill:#0c0c0c;fill-opacity:1"/><path d="M175.637 370.734c.746.618 1.062 1.403 1.43 2.27l.203.46c.136.321.277.645.414.966q.316.738.64 1.476.202.469.403.938l.195.445c.277.652.441 1.106.441 1.824h-7.218c.207-1.035.476-1.785.91-2.738l.199-.445c.21-.465.422-.934.637-1.399l.43-.949c1.007-2.23 1.007-2.23 1.316-2.848" style="stroke:none;fill-rule:nonzero;fill:#101010;fill-opacity:1"/><path d="M217.336 367.941h1.863V384.7h-1.863Zm0 0" style="stroke:none;fill-rule:nonzero;fill:#797a7b;fill-opacity:1"/><path d="m182.625 162.21.465.235-4.192 4.188-.464-.235q.65-.72 1.308-1.437l.371-.41a21.6 21.6 0 0 1 2.512-2.34" style="stroke:none;fill-rule:nonzero;fill:#d4b031;fill-opacity:1"/><path d="m301.426 304.406.465.235-3.957 3.957c0-1.215 1.046-1.961 1.863-2.793.527-.489 1.07-.946 1.629-1.399" style="stroke:none;fill-rule:nonzero;fill:#181818;fill-opacity:1"/><path d="m21.2 143.594.464.23-3.96 3.957c0-1.144.858-1.77 1.632-2.558a43 43 0 0 1 1.863-1.63" style="stroke:none;fill-rule:nonzero;fill:#242424;fill-opacity:1"/><path d="m214.05 367.86.49.081-.466.465-.715-.101c-1.43.16-2.097 1.152-3.011 2.195l-.47-.23c1.224-1.688 2.009-2.618 4.173-2.41" style="stroke:none;fill-rule:nonzero;fill:#6c6d6f;fill-opacity:1"/></svg>